<svg id="All_logo" data-name="All logo" xmlns="http://www.w3.org/2000/svg" viewBox="0 0 2000 2000"><defs><style>.cls-1{fill:#49d6ee;}.cls-2{fill:#1a9992;}.cls-3{fill:#32bfc6;}</style></defs><g id="ICON_COLOR" data-name="ICON COLOR"><path class="cls-1" d="M2000,272.43A259.44,259.44,0,0,1,1990,344q-10.38,40.23-21.32,79.93a42.27,42.27,0,0,1-41.47,31c-135.1-2.42-270.65-10.67-403.44-36.56-138.28-27-266.6-72.18-392.88-147-19.64-11.63-13.57-41.16,9-44.28a1113.14,1113.14,0,0,0,436.83-158q21.43-13.3,42.23-27.63A260.79,260.79,0,0,1,1891.6,60.92a262.72,262.72,0,0,1,59.3,59.25A259.08,259.08,0,0,1,2000,272.43Z"/><path class="cls-1" d="M118.88,788.09a44.74,44.74,0,0,0,61.77,23.19C453.54,674.86,737.93,683.62,1007.32,838l1.21.72c255.81,157.53,522.5,188.9,720.64,182.4a45.07,45.07,0,0,0,40.09-27.26c54.37-127.73,103.76-257,145.91-389.39q1.85-5.78,3.66-11.55a44.72,44.72,0,0,0-42.81-58.2c-28.21.11-65.18-.57-108.87-3.27-30.64-1.91-64.57-4.79-101.08-9.09-158.07-18.58-314.61-57.12-461-120.12C1042,332,906.77,224.69,756.94,131.68,657.56,70,548.89,18.33,432.61,5.61,217.6-17.93,18.81,116.27,1.39,339.11c-3.63,46.34.07,93,8.6,138.59,8.63,46.11,22.07,91.18,37.68,135.37C52.1,625.61,94.41,726.78,118.88,788.09Z"/><path class="cls-2" d="M1390.86,1575.89q-26.07-1.5-52-5.22-25.71-3.68-51.07-9.41c-69.29-15.59-135.85-41.84-199.27-73.54-54.49-27.24-104.47-65.16-161.52-86.58-99.49-37.34-213.93-42-317.38-20.12-10.07,2.13-82.79,28.3-129.38,48.6a38.42,38.42,0,0,0-17.19,55.88,3072.36,3072.36,0,0,0,234.46,318.23q44.26,52.65,90.8,103.34a6,6,0,0,0,.62.71c.22.22.4.44.62.66,2.35,2.62,4.79,5.23,7.72,8.43.22.22.44.44.62.66a260.42,260.42,0,0,0,374.69,0c.17-.22.4-.44,1.15-1.24,2.39-2.62,4.83-5.23,7.18-7.85.23-.22.4-.44.63-.66a6,6,0,0,0,.62-.71q31.8-34.53,62.22-69.81c12.78-14.73,25.28-29.5,37.66-44.36q74.1-88.94,140.64-182.1h0a22,22,0,0,0-17.53-34.36C1399.17,1576.27,1394,1576.07,1390.86,1575.89Z"/><path class="cls-3" d="M1005.56,1338.94c17,8.9,34.9,19.14,53.82,30,103.11,59.09,240.84,138,430.53,115.23a44.35,44.35,0,0,0,31.91-20.43,3311.4,3311.4,0,0,0,163.07-288.4c14.87-29.61-6.18-64.31-39.31-65.06a1458.55,1458.55,0,0,1-208.06-19.45,1357.77,1357.77,0,0,1-258.79-69.89,1287.16,1287.16,0,0,1-216.1-106.31C715.92,773.47,455.09,768.19,205.28,898.34a45.16,45.16,0,0,0-20.8,57.56c9,21.37,18.25,42.61,27.64,63.79,44.23,99.78,93.8,199.32,147.66,295.13q5.89,10.52,11.89,21c12.28,21.48,39.39,28.57,61.09,16.7C614.61,1253,854.85,1261.45,1005.56,1338.94Z"/></g></svg>