<svg width="2000" height="2000" viewBox="0 0 2000 2000" fill="none" xmlns="http://www.w3.org/2000/svg">
<g clip-path="url(#clip0_54_2)">
<circle cx="1000" cy="1000" r="1000" fill="#1A9992"/>
<g filter="url(#filter0_i_54_2)">
<circle cx="1000" cy="1000" r="850" fill="#05332D"/>
</g>
<path d="M1438.75 723.345C1438.77 733.971 1437.3 744.547 1434.37 754.764C1431.34 766.548 1428.23 778.241 1425.02 789.844C1423.93 793.808 1421.54 797.296 1418.25 799.757C1414.95 802.219 1410.93 803.515 1406.82 803.441C1347.58 802.383 1288.04 798.76 1229.76 787.397C1169.08 775.567 1112.76 755.725 1057.34 722.889C1055.46 721.781 1053.97 720.112 1053.08 718.117C1052.19 716.121 1051.95 713.898 1052.39 711.758C1052.82 709.618 1053.92 707.668 1055.52 706.181C1057.12 704.694 1059.14 703.744 1061.31 703.464C1129.38 694.089 1194.7 670.459 1253.02 634.119C1259.29 630.235 1265.47 626.194 1271.55 621.999C1290.33 612.216 1311.45 607.835 1332.58 609.344C1353.7 610.853 1373.99 618.192 1391.18 630.545C1401.19 637.764 1409.98 646.542 1417.21 656.545C1431.26 675.983 1438.8 699.364 1438.75 723.345Z" fill="#49D6EE"/>
<path d="M613.181 949.658C614.197 952.185 615.727 954.473 617.675 956.376C619.622 958.28 621.945 959.757 624.494 960.714C627.044 961.672 629.764 962.088 632.483 961.937C635.202 961.786 637.86 961.07 640.288 959.836C760.058 899.961 884.869 903.778 1003.1 971.568L1003.62 971.879C1115.89 1041.01 1232.93 1054.78 1319.9 1051.93C1323.66 1051.82 1327.32 1050.63 1330.44 1048.51C1333.56 1046.39 1336.01 1043.43 1337.49 1039.96C1361.35 983.903 1383.03 927.174 1401.53 869.027C1402.07 867.338 1402.61 865.648 1403.14 863.958C1404.07 861.011 1404.29 857.885 1403.79 854.836C1403.28 851.787 1402.07 848.9 1400.23 846.411C1398.4 843.921 1396.01 841.899 1393.25 840.51C1390.49 839.121 1387.44 838.403 1384.35 838.415C1371.96 838.415 1355.73 838.162 1336.56 836.977C1323.11 836.142 1308.22 834.87 1292.21 832.986C1222.83 824.837 1154.13 807.919 1089.88 780.268C1018.3 749.451 958.963 702.347 893.212 661.527C849.595 634.45 801.918 611.782 750.871 606.168C656.507 595.844 569.253 654.729 561.61 752.54C560.027 772.867 561.61 793.331 565.388 813.357C569.176 833.598 575.1 853.381 581.898 872.767C583.87 878.351 602.44 922.755 613.181 949.658Z" fill="#49D6EE"/>
<path d="M1171.42 1295.41C1163.8 1294.96 1156.19 1294.2 1148.61 1293.12C1141.03 1292.04 1133.56 1290.66 1126.21 1288.98C1095.8 1282.18 1066.58 1270.63 1038.8 1256.71C1014.89 1244.75 992.946 1228.12 967.899 1218.71C924.194 1202.32 874.011 1200.26 828.607 1209.88C824.188 1210.85 792.274 1222.31 771.829 1231.24C769.59 1232.21 767.587 1233.65 765.959 1235.47C764.33 1237.28 763.115 1239.43 762.398 1241.76C761.68 1244.09 761.477 1246.55 761.803 1248.97C762.128 1251.39 762.975 1253.71 764.283 1255.77C795.565 1304.48 829.953 1351.13 867.232 1395.43C880.182 1410.83 893.455 1425.95 907.052 1440.78C907.132 1440.89 907.223 1441 907.324 1441.09L907.596 1441.38C908.625 1442.53 909.703 1443.68 910.985 1445.08C911.081 1445.18 911.172 1445.27 911.257 1445.38C921.917 1456.41 934.691 1465.19 948.817 1471.19C962.942 1477.18 978.13 1480.27 993.476 1480.27C1008.82 1480.27 1024.01 1477.18 1038.13 1471.19C1052.26 1465.19 1065.03 1456.41 1075.69 1445.38C1075.77 1445.28 1075.87 1445.18 1076.2 1444.83C1077.26 1443.68 1078.33 1442.53 1079.36 1441.38L1079.63 1441.09C1079.73 1441 1079.82 1440.89 1079.9 1440.78C1089.2 1430.68 1098.31 1420.47 1107.21 1410.14C1112.81 1403.68 1118.3 1397.19 1123.72 1390.72C1145.4 1364.69 1165.97 1338.05 1185.44 1310.79C1186.42 1309.36 1186.99 1307.7 1187.1 1305.97C1187.21 1304.24 1186.86 1302.51 1186.07 1300.97C1185.28 1299.43 1184.1 1298.12 1182.63 1297.2C1181.17 1296.27 1179.48 1295.76 1177.75 1295.71C1175.07 1295.58 1172.76 1295.49 1171.42 1295.41Z" fill="#1A9992"/>
<path d="M1002.32 1191.41C1009.79 1195.3 1017.63 1199.81 1025.94 1204.57C1071.2 1230.51 1131.65 1265.14 1214.89 1255.14C1217.74 1254.78 1220.48 1253.79 1222.9 1252.24C1225.32 1250.69 1227.37 1248.62 1228.89 1246.18C1254.85 1205.21 1278.73 1162.97 1300.46 1119.61C1301.96 1116.63 1302.68 1113.33 1302.55 1109.99C1302.43 1106.66 1301.45 1103.42 1299.73 1100.57C1298.01 1097.71 1295.59 1095.34 1292.7 1093.68C1289.81 1092.02 1286.55 1091.11 1283.21 1091.06C1252.62 1090.39 1222.11 1087.54 1191.92 1082.52C1153.12 1076.07 1115.06 1065.8 1078.29 1051.85C1045.29 1039.3 1013.54 1023.69 983.448 1005.23C875.177 943.287 760.699 940.965 651.069 998.083C646.656 1000.38 643.268 1004.25 641.577 1008.93C639.886 1013.6 640.015 1018.75 641.939 1023.33C645.824 1032.72 649.952 1042.04 654.07 1051.33C673.494 1095.13 695.239 1138.81 718.869 1180.86C720.598 1183.94 722.34 1187.01 724.094 1190.06C726.701 1194.56 730.976 1197.86 735.993 1199.23C741.01 1200.6 746.365 1199.94 750.9 1197.4C830.744 1153.69 936.179 1157.41 1002.32 1191.41Z" fill="#32BFC6"/>
</g>
<defs>
<filter id="filter0_i_54_2" x="150" y="150" width="1700" height="1700" filterUnits="userSpaceOnUse" color-interpolation-filters="sRGB">
<feFlood flood-opacity="0" result="BackgroundImageFix"/>
<feBlend mode="normal" in="SourceGraphic" in2="BackgroundImageFix" result="shape"/>
<feColorMatrix in="SourceAlpha" type="matrix" values="0 0 0 0 0 0 0 0 0 0 0 0 0 0 0 0 0 0 127 0" result="hardAlpha"/>
<feMorphology radius="30" operator="erode" in="SourceAlpha" result="effect1_innerShadow_54_2"/>
<feOffset/>
<feGaussianBlur stdDeviation="50"/>
<feComposite in2="hardAlpha" operator="arithmetic" k2="-1" k3="1"/>
<feColorMatrix type="matrix" values="0 0 0 0 0 0 0 0 0 0 0 0 0 0 0 0 0 0 0.35 0"/>
<feBlend mode="normal" in2="shape" result="effect1_innerShadow_54_2"/>
</filter>
<clipPath id="clip0_54_2">
<rect width="2000" height="2000" fill="white"/>
</clipPath>
</defs>
</svg>
