<svg xmlns="http://www.w3.org/2000/svg" viewBox="0 0 2000 561.07"><defs><style>.cls-1{font-size:390.37px;font-family:Raleway-SemiBold, Raleway;font-weight:600;}.cls-2{letter-spacing:-0.07em;}.cls-3{letter-spacing:0em;}.cls-4{letter-spacing:-0.01em;}.cls-5{letter-spacing:-0.02em;}</style></defs><g id="Calque_2" data-name="Calque 2"><g id="All_logo" data-name="All logo"><g id="ICON_TEXT_BLACK" data-name="ICON + TEXT BLACK"><path d="M562.73,75.83A72.85,72.85,0,0,1,559.92,96q-2.91,11.31-6,22.49a11.89,11.89,0,0,1-11.66,8.71c-38-.68-76.15-3-113.52-10.29-38.9-7.58-75-20.31-110.54-41.36a6.72,6.72,0,0,1,2.55-12.46A313.25,313.25,0,0,0,443.66,18.61q6-3.75,11.88-7.78a73.41,73.41,0,0,1,76.69,5.48A74,74,0,0,1,548.92,33,72.93,72.93,0,0,1,562.73,75.83Z"/><path d="M33.45,220.91a12.58,12.58,0,0,0,17.38,6.53c76.78-38.39,156.8-35.92,232.6,7.52l.34.2c72,44.32,147,53.15,202.76,51.32a12.68,12.68,0,0,0,11.28-7.67c15.3-35.94,29.19-72.31,41.05-109.56.35-1.08.69-2.17,1-3.25a12.58,12.58,0,0,0-12-16.38c-7.94,0-18.34-.16-30.63-.92-8.63-.53-18.17-1.34-28.44-2.56-44.48-5.22-88.52-16.07-129.71-33.79-45.9-19.76-83.94-50-126.09-76.13C185,18.86,154.44,4.33,121.72.75,61.23-5.87,5.29,31.89.39,94.59a149.13,149.13,0,0,0,2.42,39,256.68,256.68,0,0,0,10.6,38.09C14.66,175.2,26.56,203.66,33.45,220.91Z"/><path d="M391.34,442.57q-7.33-.42-14.62-1.47t-14.37-2.64c-19.49-4.39-38.22-11.77-56.07-20.69-15.33-7.67-29.39-18.34-45.44-24.36-28-10.51-60.2-11.82-89.3-5.67-2.84.6-23.3,8-36.41,13.68a10.81,10.81,0,0,0-4.83,15.72,864.87,864.87,0,0,0,66,89.54q12.45,14.82,25.55,29.07a1.12,1.12,0,0,0,.17.2l.17.19c.67.74,1.35,1.47,2.18,2.37l.17.19a73.28,73.28,0,0,0,105.42,0l.33-.35c.67-.74,1.36-1.47,2-2.21l.18-.19a1.12,1.12,0,0,0,.17-.2q8.94-9.71,17.51-19.64,5.39-6.21,10.59-12.48,20.85-25,39.57-51.24h0a6.17,6.17,0,0,0-4.93-9.66C393.68,442.68,392.22,442.62,391.34,442.57Z"/><path d="M282.93,375.9c4.79,2.51,9.82,5.39,15.14,8.44,29,16.63,67.77,38.83,121.14,32.42a12.45,12.45,0,0,0,9-5.75q24.93-39.31,45.88-81.14A12.64,12.64,0,0,0,463,311.56a410.29,410.29,0,0,1-58.54-5.47,382.28,382.28,0,0,1-72.82-19.66,362.92,362.92,0,0,1-60.8-29.91c-69.42-39.72-142.8-41.21-213.09-4.59a12.71,12.71,0,0,0-5.85,16.2c2.52,6,5.13,12,7.77,17.95,12.45,28.07,26.4,56.08,41.55,83q1.67,3,3.34,5.9a12.69,12.69,0,0,0,17.19,4.7C172.93,351.72,240.53,354.1,282.93,375.9Z"/><text class="cls-1" transform="translate(706.72 444.2)"><tspan class="cls-2">V</tspan><tspan class="cls-3" x="238.13" y="0">o</tspan><tspan class="cls-4" x="473.12" y="0">r</tspan><tspan x="616.39" y="0">d</tspan><tspan class="cls-5" x="865.05" y="0">e</tspan><tspan x="1089.51" y="0">x</tspan></text></g></g></g></svg>